<?xml version="1.0" encoding="UTF-8" standalone="no"?>
<!DOCTYPE svg PUBLIC "-//W3C//DTD SVG 1.1//EN"
 "http://www.w3.org/Graphics/SVG/1.1/DTD/svg11.dtd">
<!-- Generated by graphviz version 2.40.1 (20161225.0304)
 -->
<!-- Title: dynamic_subsumption_graph Pages: 1 -->
<svg width="1432pt" height="896pt"
 viewBox="0.00 0.00 1432.49 895.90" xmlns="http://www.w3.org/2000/svg" xmlns:xlink="http://www.w3.org/1999/xlink">
<g id="graph0" class="graph" transform="scale(1 1) rotate(0) translate(4 891.8965)">
<title>dynamic_subsumption_graph</title>
<polygon fill="#ffffff" stroke="transparent" points="-4,4 -4,-891.8965 1428.4895,-891.8965 1428.4895,4 -4,4"/>
<!-- PRVOR_REFINED_1_03C5E3B -->
<g id="node1" class="node">
<title>PRVOR_REFINED_1_03C5E3B</title>
<g id="a_node1"><a xlink:href="file:PRVOR_REFINED_1_03C5E3B.txt" xlink:title="PRVOR_REFINED_1_03C5E3B">
<ellipse fill="#c0c0c0" stroke="#000000" cx="298.3991" cy="-526.9396" rx="298.2982" ry="28.9828"/>
<text text-anchor="middle" x="298.3991" y="-519.4396" font-family="Times,serif" font-size="30.00" fill="#000000">PRVOR_REFINED_1_03C5E3B</text>
</a>
</g>
</g>
<!-- AOIS_1_A00E069 -->
<g id="node2" class="node">
<title>AOIS_1_A00E069</title>
<g id="a_node2"><a xlink:href="file:AOIS_1_A00E069.txt" xlink:title="AOIS_1_A00E069">
<ellipse fill="none" stroke="#000000" stroke-dasharray="5,2" cx="298.3991" cy="-360.9569" rx="173.8966" ry="28.9828"/>
<text text-anchor="middle" x="298.3991" y="-353.4569" font-family="Times,serif" font-size="30.00" fill="#000000">AOIS_1_A00E069</text>
</a>
</g>
</g>
<!-- PRVOR_REFINED_1_03C5E3B&#45;&gt;AOIS_1_A00E069 -->
<g id="edge1" class="edge">
<title>PRVOR_REFINED_1_03C5E3B&#45;&gt;AOIS_1_A00E069</title>
<path fill="none" stroke="#000000" d="M298.3991,-497.6473C298.3991,-470.5074 298.3991,-429.9404 298.3991,-400.0458"/>
<polygon fill="#000000" stroke="#000000" points="301.8992,-399.9563 298.3991,-389.9564 294.8992,-399.9564 301.8992,-399.9563"/>
</g>
<!-- ROR_2_CB78C9A -->
<g id="node3" class="node">
<title>ROR_2_CB78C9A</title>
<g id="a_node3"><a xlink:href="file:ROR_2_CB78C9A.txt" xlink:title="ROR_2_CB78C9A">
<ellipse fill="none" stroke="#000000" stroke-dasharray="5,2" cx="776.3991" cy="-360.9569" rx="177.4676" ry="28.9828"/>
<text text-anchor="middle" x="776.3991" y="-353.4569" font-family="Times,serif" font-size="30.00" fill="#000000">ROR_2_CB78C9A</text>
</a>
</g>
</g>
<!-- PRVOR_REFINED_1_03C5E3B&#45;&gt;ROR_2_CB78C9A -->
<g id="edge2" class="edge">
<title>PRVOR_REFINED_1_03C5E3B&#45;&gt;ROR_2_CB78C9A</title>
<path fill="none" stroke="#000000" d="M378.9447,-498.9706C465.5854,-468.8851 602.7896,-421.2418 691.1936,-390.544"/>
<polygon fill="#000000" stroke="#000000" points="692.3595,-393.8442 700.658,-387.2575 690.0632,-387.2316 692.3595,-393.8442"/>
</g>
<!-- AOIS_2_18F175E -->
<g id="node10" class="node">
<title>AOIS_2_18F175E</title>
<g id="a_node10"><a xlink:href="file:AOIS_2_18F175E.txt" xlink:title="AOIS_2_18F175E">
<ellipse fill="none" stroke="#000000" stroke-dasharray="1,5" cx="298.3991" cy="-194.9741" rx="170.3255" ry="28.9828"/>
<text text-anchor="middle" x="298.3991" y="-187.4741" font-family="Times,serif" font-size="30.00" fill="#000000">AOIS_2_18F175E</text>
</a>
</g>
</g>
<!-- AOIS_1_A00E069&#45;&gt;AOIS_2_18F175E -->
<g id="edge8" class="edge">
<title>AOIS_1_A00E069&#45;&gt;AOIS_2_18F175E</title>
<path fill="none" stroke="#000000" d="M298.3991,-331.6646C298.3991,-304.5246 298.3991,-263.9576 298.3991,-234.0631"/>
<polygon fill="#000000" stroke="#000000" points="301.8992,-233.9736 298.3991,-223.9736 294.8992,-233.9737 301.8992,-233.9736"/>
</g>
<!-- ROR_2_5596299 -->
<g id="node11" class="node">
<title>ROR_2_5596299</title>
<g id="a_node11"><a xlink:href="file:ROR_2_5596299.txt" xlink:title="ROR_2_5596299">
<ellipse fill="none" stroke="#000000" stroke-dasharray="5,2" cx="957.3991" cy="-194.9741" rx="161.8549" ry="28.9828"/>
<text text-anchor="middle" x="957.3991" y="-187.4741" font-family="Times,serif" font-size="30.00" fill="#000000">ROR_2_5596299</text>
</a>
</g>
</g>
<!-- ROR_2_CB78C9A&#45;&gt;ROR_2_5596299 -->
<g id="edge9" class="edge">
<title>ROR_2_CB78C9A&#45;&gt;ROR_2_5596299</title>
<path fill="none" stroke="#000000" d="M807.9269,-332.0449C838.6826,-303.8409 885.5328,-260.8777 918.5689,-230.5826"/>
<polygon fill="#000000" stroke="#000000" points="921.2279,-232.8931 926.2326,-223.5548 916.4968,-227.734 921.2279,-232.8931"/>
</g>
<!-- AORB_2_4C183E7 -->
<g id="node4" class="node">
<title>AORB_2_4C183E7</title>
<g id="a_node4"><a xlink:href="file:AORB_2_4C183E7.txt" xlink:title="AORB_2_4C183E7">
<ellipse fill="#c0c0c0" stroke="#000000" cx="469.3991" cy="-858.9052" rx="183.2814" ry="28.9828"/>
<text text-anchor="middle" x="469.3991" y="-851.4052" font-family="Times,serif" font-size="30.00" fill="#000000">AORB_2_4C183E7</text>
</a>
</g>
</g>
<!-- LOI_1_5DF4111 -->
<g id="node5" class="node">
<title>LOI_1_5DF4111</title>
<g id="a_node5"><a xlink:href="file:LOI_1_5DF4111.txt" xlink:title="LOI_1_5DF4111">
<ellipse fill="none" stroke="#000000" stroke-dasharray="5,2" cx="492.3991" cy="-692.9224" rx="158.2839" ry="28.9828"/>
<text text-anchor="middle" x="492.3991" y="-685.4224" font-family="Times,serif" font-size="30.00" fill="#000000">LOI_1_5DF4111</text>
</a>
</g>
</g>
<!-- AORB_2_4C183E7&#45;&gt;LOI_1_5DF4111 -->
<g id="edge3" class="edge">
<title>AORB_2_4C183E7&#45;&gt;LOI_1_5DF4111</title>
<path fill="none" stroke="#000000" d="M473.4581,-829.6129C477.2188,-802.4729 482.8401,-761.9059 486.9826,-732.0114"/>
<polygon fill="#000000" stroke="#000000" points="490.4749,-732.3077 488.3806,-721.9219 483.5411,-731.3468 490.4749,-732.3077"/>
</g>
<!-- LOI_1_EDC839F -->
<g id="node13" class="node">
<title>LOI_1_EDC839F</title>
<g id="a_node13"><a xlink:href="file:LOI_1_EDC839F.txt" xlink:title="LOI_1_EDC839F">
<ellipse fill="none" stroke="#000000" stroke-dasharray="5,2" cx="779.3991" cy="-526.9396" rx="164.5121" ry="28.9828"/>
<text text-anchor="middle" x="779.3991" y="-519.4396" font-family="Times,serif" font-size="30.00" fill="#000000">LOI_1_EDC839F</text>
</a>
</g>
</g>
<!-- LOI_1_5DF4111&#45;&gt;LOI_1_EDC839F -->
<g id="edge11" class="edge">
<title>LOI_1_5DF4111&#45;&gt;LOI_1_EDC839F</title>
<path fill="none" stroke="#000000" d="M540.4364,-665.1406C590.5177,-636.1767 668.9895,-590.7936 722.2288,-560.0033"/>
<polygon fill="#000000" stroke="#000000" points="724.3007,-562.8483 731.205,-554.8121 720.7962,-556.7887 724.3007,-562.8483"/>
</g>
<!-- AOIU_8_CFA3633 -->
<g id="node6" class="node">
<title>AOIU_8_CFA3633</title>
<g id="a_node6"><a xlink:href="file:AOIU_8_CFA3633.txt" xlink:title="AOIU_8_CFA3633">
<ellipse fill="none" stroke="#000000" cx="850.3991" cy="-858.9052" rx="180.1247" ry="28.9828"/>
<text text-anchor="middle" x="850.3991" y="-851.4052" font-family="Times,serif" font-size="30.00" fill="#000000">AOIU_8_CFA3633</text>
</a>
</g>
</g>
<!-- ROR_1_15BDF36 -->
<g id="node7" class="node">
<title>ROR_1_15BDF36</title>
<g id="a_node7"><a xlink:href="file:ROR_1_15BDF36.txt" xlink:title="ROR_1_15BDF36">
<ellipse fill="none" stroke="#000000" stroke-dasharray="5,2" cx="1137.3991" cy="-526.9396" rx="171.2398" ry="28.9828"/>
<text text-anchor="middle" x="1137.3991" y="-519.4396" font-family="Times,serif" font-size="30.00" fill="#000000">ROR_1_15BDF36</text>
</a>
</g>
</g>
<!-- AOIU_8_CFA3633&#45;&gt;ROR_1_15BDF36 -->
<g id="edge4" class="edge">
<title>AOIU_8_CFA3633&#45;&gt;ROR_1_15BDF36</title>
<path fill="none" stroke="#000000" d="M893.0952,-830.6227C929.5162,-805.1061 981.8012,-765.0476 1019.3991,-721.9138 1062.0901,-672.9369 1098.5643,-606.5701 1119.232,-565.274"/>
<polygon fill="#000000" stroke="#000000" points="1122.4732,-566.6154 1123.7695,-556.1002 1116.1987,-563.5119 1122.4732,-566.6154"/>
</g>
<!-- LOI_1_89ED058 -->
<g id="node8" class="node">
<title>LOI_1_89ED058</title>
<g id="a_node8"><a xlink:href="file:LOI_1_89ED058.txt" xlink:title="LOI_1_89ED058">
<ellipse fill="none" stroke="#000000" stroke-dasharray="5,2" cx="850.3991" cy="-692.9224" rx="159.6125" ry="28.9828"/>
<text text-anchor="middle" x="850.3991" y="-685.4224" font-family="Times,serif" font-size="30.00" fill="#000000">LOI_1_89ED058</text>
</a>
</g>
</g>
<!-- AOIU_8_CFA3633&#45;&gt;LOI_1_89ED058 -->
<g id="edge5" class="edge">
<title>AOIU_8_CFA3633&#45;&gt;LOI_1_89ED058</title>
<path fill="none" stroke="#000000" d="M850.3991,-829.6129C850.3991,-802.4729 850.3991,-761.9059 850.3991,-732.0114"/>
<polygon fill="#000000" stroke="#000000" points="853.8992,-731.9219 850.3991,-721.9219 846.8992,-731.9219 853.8992,-731.9219"/>
</g>
<!-- ROR_1_15BDF36&#45;&gt;ROR_2_CB78C9A -->
<g id="edge13" class="edge">
<title>ROR_1_15BDF36&#45;&gt;ROR_2_CB78C9A</title>
<path fill="none" stroke="#000000" d="M1078.1915,-499.7168C1014.2876,-470.3347 912.632,-423.5949 845.2171,-392.5985"/>
<polygon fill="#000000" stroke="#000000" points="846.4871,-389.3302 835.9393,-388.3327 843.5629,-395.6902 846.4871,-389.3302"/>
</g>
<!-- ROR_1_8B5E194 -->
<g id="node14" class="node">
<title>ROR_1_8B5E194</title>
<g id="a_node14"><a xlink:href="file:ROR_1_8B5E194.txt" xlink:title="ROR_1_8B5E194">
<ellipse fill="none" stroke="#000000" stroke-dasharray="5,2" cx="1139.3991" cy="-360.9569" rx="167.6687" ry="28.9828"/>
<text text-anchor="middle" x="1139.3991" y="-353.4569" font-family="Times,serif" font-size="30.00" fill="#000000">ROR_1_8B5E194</text>
</a>
</g>
</g>
<!-- ROR_1_15BDF36&#45;&gt;ROR_1_8B5E194 -->
<g id="edge14" class="edge">
<title>ROR_1_15BDF36&#45;&gt;ROR_1_8B5E194</title>
<path fill="none" stroke="#000000" d="M1137.752,-497.6473C1138.079,-470.5074 1138.5678,-429.9404 1138.9281,-400.0458"/>
<polygon fill="#000000" stroke="#000000" points="1142.4288,-399.9979 1139.0496,-389.9564 1135.4293,-399.9134 1142.4288,-399.9979"/>
</g>
<!-- LOI_1_89ED058&#45;&gt;LOI_1_EDC839F -->
<g id="edge16" class="edge">
<title>LOI_1_89ED058&#45;&gt;LOI_1_EDC839F</title>
<path fill="none" stroke="#000000" d="M838.0318,-664.0104C826.3445,-636.6881 808.7325,-595.5149 795.8616,-565.4255"/>
<polygon fill="#000000" stroke="#000000" points="799.0137,-563.8949 791.8628,-556.0772 792.5778,-566.6479 799.0137,-563.8949"/>
</g>
<!-- AOIU_10_678A0E8 -->
<g id="node9" class="node">
<title>AOIU_10_678A0E8</title>
<g id="a_node9"><a xlink:href="file:AOIU_10_678A0E8.txt" xlink:title="AOIU_10_678A0E8">
<ellipse fill="none" stroke="#000000" cx="1236.3991" cy="-858.9052" rx="188.1809" ry="28.9828"/>
<text text-anchor="middle" x="1236.3991" y="-851.4052" font-family="Times,serif" font-size="30.00" fill="#000000">AOIU_10_678A0E8</text>
</a>
</g>
</g>
<!-- AOIU_10_678A0E8&#45;&gt;ROR_1_15BDF36 -->
<g id="edge6" class="edge">
<title>AOIU_10_678A0E8&#45;&gt;ROR_1_15BDF36</title>
<path fill="none" stroke="#000000" d="M1227.7002,-829.7364C1209.8382,-769.8418 1169.023,-632.9807 1148.9623,-565.7132"/>
<polygon fill="#000000" stroke="#000000" points="1152.2548,-564.5065 1146.0428,-555.9238 1145.5467,-566.507 1152.2548,-564.5065"/>
</g>
<!-- AOIU_10_678A0E8&#45;&gt;LOI_1_89ED058 -->
<g id="edge7" class="edge">
<title>AOIU_10_678A0E8&#45;&gt;LOI_1_89ED058</title>
<path fill="none" stroke="#000000" d="M1172.659,-831.4965C1103.7002,-801.8437 993.996,-754.6701 922.0847,-723.7477"/>
<polygon fill="#000000" stroke="#000000" points="923.2037,-720.4191 912.6344,-719.684 920.4384,-726.8498 923.2037,-720.4191"/>
</g>
<!-- COI_1_7F95C89 -->
<g id="node12" class="node">
<title>COI_1_7F95C89</title>
<g id="a_node12"><a xlink:href="file:COI_1_7F95C89.txt" xlink:title="COI_1_7F95C89">
<ellipse fill="none" stroke="#000000" stroke-dasharray="1,5" cx="957.3991" cy="-28.9914" rx="159.1981" ry="28.9828"/>
<text text-anchor="middle" x="957.3991" y="-21.4914" font-family="Times,serif" font-size="30.00" fill="#000000">COI_1_7F95C89</text>
</a>
</g>
</g>
<!-- ROR_2_5596299&#45;&gt;COI_1_7F95C89 -->
<g id="edge10" class="edge">
<title>ROR_2_5596299&#45;&gt;COI_1_7F95C89</title>
<path fill="none" stroke="#000000" d="M957.3991,-165.6818C957.3991,-138.5419 957.3991,-97.9749 957.3991,-68.0803"/>
<polygon fill="#000000" stroke="#000000" points="960.8992,-67.9908 957.3991,-57.9909 953.8992,-67.9909 960.8992,-67.9908"/>
</g>
<!-- LOI_1_EDC839F&#45;&gt;ROR_2_CB78C9A -->
<g id="edge12" class="edge">
<title>LOI_1_EDC839F&#45;&gt;ROR_2_CB78C9A</title>
<path fill="none" stroke="#000000" d="M778.8696,-497.6473C778.3791,-470.5074 777.6459,-429.9404 777.1056,-400.0458"/>
<polygon fill="#000000" stroke="#000000" points="780.6034,-399.8915 776.9232,-389.9564 773.6046,-400.018 780.6034,-399.8915"/>
</g>
<!-- ROR_1_8B5E194&#45;&gt;ROR_2_5596299 -->
<g id="edge15" class="edge">
<title>ROR_1_8B5E194&#45;&gt;ROR_2_5596299</title>
<path fill="none" stroke="#000000" d="M1108.1121,-332.4234C1077.2504,-304.2778 1029.9834,-261.1705 996.6257,-230.7486"/>
<polygon fill="#000000" stroke="#000000" points="998.634,-227.8431 988.8868,-223.6907 993.9171,-233.0153 998.634,-227.8431"/>
</g>
</g>
</svg>
